<svg width="64" height="64" xmlns="http://www.w3.org/2000/svg">
    <g>
        <title>background</title>
        <rect fill="#3b7eb0" id="canvas_background" height="66" width="66" y="-1" x="-1"/>
    </g>
    <g>
        <title>Layer 1</title>
        <path stroke="null" id="svg_1" d="m1,1l59.248672,0l0,59.248672l-59.248672,0l0,-59.248672z" fill="#FFF"/>
        <path stroke="null" id="svg_2"
              d="m1,1l0,61.920182l61.920182,0l0,-61.920182l-61.920182,0zm57.497312,57.497312l-53.074442,0l0,-53.074442l53.074442,0l0,53.074442z"
              fill="#999"/>
        <path stroke="null" id="svg_3"
              d="m49.750484,18.820764l-1.731755,-1.298816c-0.432939,-0.432939 -1.298816,-0.432939 -1.731755,0l-20.348118,20.781056l-8.658773,-8.658773c-0.432939,-0.432939 -1.298816,-0.432939 -1.731755,0l-1.298816,1.731755c-0.432939,0.432939 -0.432939,1.298816 0,1.731755l9.091712,9.091712l1.731755,1.298816c0.432939,0.432939 1.298816,0.432939 1.731755,0l1.731755,-1.731755l21.213995,-21.213995c0.432939,-0.432939 0.432939,-1.298816 0,-1.731755z"
              fill="#666"/>
        <g id="svg_10">
            <g transform="matrix(255.07292336997125,0,0,255.07292336997125,0,0) " id="svg_7" class="icon-color">
                <path id="svg_8"
                      d="m5.862955,-4.074546l-1.4,-1.4c-0.8,-0.8 -2,-0.8 -2.8,0l-3.6,3.5c-0.8,0.8 -0.8,2 0,2.8l1.2,1.2l0.9,-0.8l-1.1,-1.1c-0.4,-0.4 -0.4,-1 0,-1.4l3.2,-3.2c0.4,-0.4 1,-0.4 1.4,0l1.1,1.1c0.4,0.4 0.4,1 0,1.4l-1.3,1.3c0.2,0.4 0.4,0.9 0.4,1.4l2,-2c0.7,-0.8 0.7,-2.1 0,-2.8z"/>
                <path id="svg_9"
                      d="m1.062955,-1.774546l-0.9,0.8l1.1,1.1c0.4,0.4 0.4,1 0,1.4l-3.2,3.2c-0.4,0.4 -1,0.4 -1.4,0l-1.1,-1.1c-0.4,-0.4 -0.4,-1 0,-1.4l1.3,-1.3c-0.2,-0.4 -0.4,-0.9 -0.4,-1.4l-2,2c-0.8,0.8 -0.8,2 0,2.8l1.4,1.4c0.8,0.8 2,0.8 2.8,0l3.5,-3.5c0.8,-0.8 0.8,-2 0,-2.8l-1.1,-1.2z"/>
            </g>
        </g>
    </g>
</svg>